<svg preserveAspectRatio="none" width="100%" height="100%" overflow="visible" style="display: block;" viewBox="0 0 19.9921 19.9921" fill="none" xmlns="http://www.w3.org/2000/svg">
<g id="Icon" clip-path="url(#clip0_0_105)">
<path id="Vector" d="M15.8271 5.83103V3.33202C15.8271 3.11109 15.7393 2.89921 15.5831 2.74299C15.4269 2.58678 15.215 2.49901 14.9941 2.49901H4.16502C3.72317 2.49901 3.29941 2.67454 2.98698 2.98698C2.67454 3.29941 2.49901 3.72317 2.49901 4.16502C2.49901 4.60688 2.67454 5.03063 2.98698 5.34307C3.29941 5.65551 3.72317 5.83103 4.16502 5.83103H16.6601C16.881 5.83103 17.0929 5.91879 17.2491 6.07501C17.4053 6.23123 17.4931 6.44311 17.4931 6.66404V9.99605M17.4931 9.99605H14.9941C14.5522 9.99605 14.1285 10.1716 13.816 10.484C13.5036 10.7965 13.3281 11.2202 13.3281 11.6621C13.3281 12.1039 13.5036 12.5277 13.816 12.8401C14.1285 13.1525 14.5522 13.3281 14.9941 13.3281H17.4931C17.714 13.3281 17.9259 13.2403 18.0821 13.0841C18.2383 12.9279 18.3261 12.716 18.3261 12.4951V10.8291C18.3261 10.6081 18.2383 10.3963 18.0821 10.24C17.9259 10.0838 17.714 9.99605 17.4931 9.99605Z" stroke="#AD46FF" stroke-width="2.08251" stroke-linecap="round" stroke-linejoin="round"/>
<path id="Vector_2" d="M2.49901 4.16502V15.8271C2.49901 16.2689 2.67454 16.6927 2.98698 17.0051C3.29941 17.3176 3.72317 17.4931 4.16502 17.4931H16.6601C16.881 17.4931 17.0929 17.4053 17.2491 17.2491C17.4053 17.0929 17.4931 16.881 17.4931 16.6601V13.3281" stroke="#AD46FF" stroke-width="2.08251" stroke-linecap="round" stroke-linejoin="round"/>
</g>
<defs>
<clipPath id="clip0_0_105">
<rect width="19.9921" height="19.9921" fill="white"/>
</clipPath>
</defs>
</svg>
