<svg preserveAspectRatio="none" width="100%" height="100%" overflow="visible" style="display: block;" viewBox="0 0 19.9921 19.9921" fill="none" xmlns="http://www.w3.org/2000/svg">
<g id="Icon" clip-path="url(#clip0_0_65)">
<path id="Vector" d="M8.55329 17.4931C8.69952 17.7463 8.90983 17.9566 9.16309 18.1028C9.41634 18.2491 9.70362 18.326 9.99605 18.326C10.2885 18.326 10.5758 18.2491 10.829 18.1028C11.0823 17.9566 11.2926 17.7463 11.4388 17.4931" stroke="var(--stroke-0, white)" stroke-width="1.66601" stroke-linecap="round" stroke-linejoin="round"/>
<path id="Vector_2" d="M2.71726 12.7666C2.60844 12.8859 2.53663 13.0342 2.51055 13.1936C2.48448 13.3529 2.50528 13.5164 2.57041 13.6641C2.63554 13.8118 2.7422 13.9375 2.87741 14.0257C3.01262 14.1139 3.17056 14.161 3.33202 14.1611H16.6601C16.8215 14.1611 16.9795 14.1143 17.1148 14.0262C17.2501 13.9382 17.3569 13.8127 17.4222 13.665C17.4875 13.5174 17.5085 13.354 17.4826 13.1946C17.4568 13.0353 17.3852 12.8869 17.2765 12.7675C16.1686 11.6254 14.9941 10.4117 14.9941 6.66404C14.9941 5.33848 14.4675 4.06721 13.5302 3.1299C12.5929 2.19259 11.3216 1.66601 9.99605 1.66601C8.67049 1.66601 7.39923 2.19259 6.46192 3.1299C5.5246 4.06721 4.99803 5.33848 4.99803 6.66404C4.99803 10.4117 3.82266 11.6254 2.71726 12.7666Z" stroke="var(--stroke-0, white)" stroke-width="1.66601" stroke-linecap="round" stroke-linejoin="round"/>
</g>
<defs>
<clipPath id="clip0_0_65">
<rect width="19.9921" height="19.9921" fill="white"/>
</clipPath>
</defs>
</svg>
