<svg preserveAspectRatio="none" width="100%" height="100%" overflow="visible" style="display: block;" viewBox="0 0 19.9999 19.9999" fill="none" xmlns="http://www.w3.org/2000/svg">
<g id="Icon" clip-path="url(#clip0_0_4)">
<path id="Vector" d="M1.71833 10.29C1.64888 10.1029 1.64888 9.89705 1.71833 9.70996C2.39474 8.06984 3.54291 6.6675 5.01729 5.68072C6.49166 4.69394 8.22583 4.16716 9.99996 4.16716C11.7741 4.16716 13.5083 4.69394 14.9826 5.68072C16.457 6.6675 17.6052 8.06984 18.2816 9.70996C18.351 9.89705 18.351 10.1029 18.2816 10.29C17.6052 11.9301 16.457 13.3324 14.9826 14.3192C13.5083 15.306 11.7741 15.8328 9.99996 15.8328C8.22583 15.8328 6.49166 15.306 5.01729 14.3192C3.54291 13.3324 2.39474 11.9301 1.71833 10.29Z" stroke="var(--stroke-0, #6B6B6B)" stroke-width="1.66666" stroke-linecap="round" stroke-linejoin="round"/>
<path id="Vector_2" d="M9.99996 12.4999C11.3807 12.4999 12.4999 11.3807 12.4999 9.99996C12.4999 8.61925 11.3807 7.49997 9.99996 7.49997C8.61925 7.49997 7.49997 8.61925 7.49997 9.99996C7.49997 11.3807 8.61925 12.4999 9.99996 12.4999Z" stroke="var(--stroke-0, #6B6B6B)" stroke-width="1.66666" stroke-linecap="round" stroke-linejoin="round"/>
</g>
<defs>
<clipPath id="clip0_0_4">
<rect width="19.9999" height="19.9999" fill="white"/>
</clipPath>
</defs>
</svg>
