<svg preserveAspectRatio="none" width="100%" height="100%" overflow="visible" style="display: block;" viewBox="0 0 23.9957 23.9957" fill="none" xmlns="http://www.w3.org/2000/svg">
<g id="Icon">
<path id="Vector" d="M14.9973 20.9963V12.9977C14.9973 12.7325 14.892 12.4782 14.7045 12.2907C14.517 12.1032 14.2627 11.9979 13.9975 11.9979H9.99823C9.73306 11.9979 9.47875 12.1032 9.29125 12.2907C9.10374 12.4782 8.9984 12.7325 8.9984 12.9977V20.9963" stroke="var(--stroke-0, white)" stroke-width="2.49956" stroke-linecap="round" stroke-linejoin="round"/>
<path id="Vector_2" d="M2.99947 9.99823C2.9994 9.70735 3.06279 9.41995 3.18522 9.15609C3.30765 8.89223 3.48618 8.65826 3.70834 8.4705L10.7071 2.47256C11.068 2.16752 11.5253 2.00017 11.9979 2.00017C12.4704 2.00017 12.9277 2.16752 13.2886 2.47256L20.2874 8.4705C20.5096 8.65826 20.6881 8.89223 20.8105 9.15609C20.933 9.41995 20.9963 9.70735 20.9963 9.99823V18.9966C20.9963 19.527 20.7856 20.0356 20.4106 20.4106C20.0356 20.7856 19.527 20.9963 18.9966 20.9963H4.99911C4.46877 20.9963 3.96016 20.7856 3.58515 20.4106C3.21014 20.0356 2.99947 19.527 2.99947 18.9966V9.99823Z" stroke="var(--stroke-0, white)" stroke-width="2.49956" stroke-linecap="round" stroke-linejoin="round"/>
</g>
</svg>
