<svg preserveAspectRatio="none" width="100%" height="100%" overflow="visible" style="display: block;" viewBox="0 0 23.9957 23.9957" fill="none" xmlns="http://www.w3.org/2000/svg">
<g id="Icon">
<path id="Vector" d="M10.998 21.7261C11.302 21.9016 11.6469 21.994 11.9979 21.994C12.3489 21.994 12.6937 21.9016 12.9977 21.7261L19.9965 17.7269C20.3001 17.5515 20.5524 17.2994 20.7279 16.9958C20.9033 16.6922 20.9959 16.3478 20.9963 15.9972V7.99858C20.9959 7.64792 20.9033 7.30351 20.7279 6.99992C20.5524 6.69633 20.3001 6.44422 19.9965 6.26889L12.9977 2.2696C12.6937 2.09409 12.3489 2.0017 11.9979 2.0017C11.6469 2.0017 11.302 2.09409 10.998 2.2696L3.99929 6.26889C3.69561 6.44422 3.44337 6.69633 3.26788 6.99992C3.09239 7.30351 2.99983 7.64792 2.99947 7.99858V15.9972C2.99983 16.3478 3.09239 16.6922 3.26788 16.9958C3.44337 17.2994 3.69561 17.5515 3.99929 17.7269L10.998 21.7261Z" stroke="var(--stroke-0, #90A1B9)" stroke-width="1.99965" stroke-linecap="round" stroke-linejoin="round"/>
<path id="Vector_2" d="M11.9979 21.9961V11.9979" stroke="var(--stroke-0, #90A1B9)" stroke-width="1.99965" stroke-linecap="round" stroke-linejoin="round"/>
<path id="Vector_3" d="M3.28942 6.99876L11.9979 11.9979L20.7063 6.99876" stroke="var(--stroke-0, #90A1B9)" stroke-width="1.99965" stroke-linecap="round" stroke-linejoin="round"/>
<path id="Vector_4" d="M7.49867 4.26924L16.4971 9.41833" stroke="var(--stroke-0, #90A1B9)" stroke-width="1.99965" stroke-linecap="round" stroke-linejoin="round"/>
</g>
</svg>
